REM DIRINDEX 1\2\4,1\2\5,1\2\6,1\3\7,1\3\8,1\3\9,1\3\10
REM DIRNAME folder01,folder02,folder03,folder04,folder05,folder06,folder07,folder08,folder09,folder10
TITLE ""
FILE "b_228.mp3" MP3
  TRACK 01 AUDIO
    TITLE "0:"
    INDEX 01 00:00:00
  TRACK 02 AUDIO
    TITLE "7:cjc057_10784"
    INDEX 01 00:00:15
  TRACK 03 AUDIO
    TITLE "0:"
    INDEX 01 00:01:56
  TRACK 04 AUDIO
    TITLE "8:cjc057_10785"
    INDEX 01 00:02:10
  TRACK 05 AUDIO
    TITLE "0:"
    INDEX 01 00:04:62
  TRACK 06 AUDIO
    TITLE "9:cjc057_10786"
    INDEX 01 00:05:28
  TRACK 07 AUDIO
    TITLE "0:"
    INDEX 01 00:09:14
  TRACK 08 AUDIO
    TITLE "7:cjc057_10787"
    INDEX 01 00:10:18
  TRACK 09 AUDIO
    TITLE "0:"
    INDEX 01 00:11:56
  TRACK 10 AUDIO
    TITLE "8:cjc057_10788"
    INDEX 01 00:12:09
  TRACK 11 AUDIO
    TITLE "0:"
    INDEX 01 00:14:37
  TRACK 12 AUDIO
    TITLE "9:cjc057_10789"
    INDEX 01 00:15:05
  TRACK 13 AUDIO
    TITLE "0:"
    INDEX 01 00:20:36
  TRACK 14 AUDIO
    TITLE "7:cjc057_10790"
    INDEX 01 00:21:39
  TRACK 15 AUDIO
    TITLE "0:"
    INDEX 01 00:23:04
  TRACK 16 AUDIO
    TITLE "8:cjc057_10791"
    INDEX 01 00:23:32
  TRACK 17 AUDIO
    TITLE "0:"
    INDEX 01 00:26:11
  TRACK 18 AUDIO
    TITLE "9:cjc057_10792"
    INDEX 01 00:26:56
  TRACK 19 AUDIO
    TITLE "0:"
    INDEX 01 00:30:22
  TRACK 20 AUDIO
    TITLE "7:cjc057_10793"
    INDEX 01 00:31:24
  TRACK 21 AUDIO
    TITLE "0:"
    INDEX 01 00:32:50
  TRACK 22 AUDIO
    TITLE "8:cjc057_10794"
    INDEX 01 00:33:05
  TRACK 23 AUDIO
    TITLE "0:"
    INDEX 01 00:34:61
  TRACK 24 AUDIO
    TITLE "9:cjc057_10795"
    INDEX 01 00:35:27
  TRACK 25 AUDIO
    TITLE "0:"
    INDEX 01 00:39:39
  TRACK 26 AUDIO
    TITLE "7:cjc057_10796"
    INDEX 01 00:40:44
  TRACK 27 AUDIO
    TITLE "0:"
    INDEX 01 00:42:00
  TRACK 28 AUDIO
    TITLE "8:cjc057_10797"
    INDEX 01 00:42:29
  TRACK 29 AUDIO
    TITLE "0:"
    INDEX 01 00:45:20
  TRACK 30 AUDIO
    TITLE "9:cjc057_10798"
    INDEX 01 00:45:59
  TRACK 31 AUDIO
    TITLE "0:"
    INDEX 01 00:48:57
  TRACK 32 AUDIO
    TITLE "7:cjc057_10799"
    INDEX 01 00:49:61
  TRACK 33 AUDIO
    TITLE "0:"
    INDEX 01 00:51:34
  TRACK 34 AUDIO
    TITLE "8:cjc057_10800"
    INDEX 01 00:51:62
  TRACK 35 AUDIO
    TITLE "0:"
    INDEX 01 00:53:74
  TRACK 36 AUDIO
    TITLE "9:cjc057_10801"
    INDEX 01 00:54:40
  TRACK 37 AUDIO
    TITLE "0:"
    INDEX 01 00:57:31
  TRACK 38 AUDIO
    TITLE "7:cjc057_10802"
    INDEX 01 00:58:38
  TRACK 39 AUDIO
    TITLE "0:"
    INDEX 01 01:00:02
  TRACK 40 AUDIO
    TITLE "8:cjc057_10803"
    INDEX 01 01:00:31
  TRACK 41 AUDIO
    TITLE "0:"
    INDEX 01 01:03:37
  TRACK 42 AUDIO
    TITLE "9:cjc057_10804"
    INDEX 01 01:04:01
  TRACK 43 AUDIO
    TITLE "0:"
    INDEX 01 01:08:25
  TRACK 44 AUDIO
    TITLE "7:cjc057_10805"
    INDEX 01 01:09:32
  TRACK 45 AUDIO
    TITLE "0:"
    INDEX 01 01:10:69
  TRACK 46 AUDIO
    TITLE "8:cjc057_10806"
    INDEX 01 01:11:25
  TRACK 47 AUDIO
    TITLE "0:"
    INDEX 01 01:13:00
  TRACK 48 AUDIO
    TITLE "9:cjc057_10807"
    INDEX 01 01:13:42
  TRACK 49 AUDIO
    TITLE "0:"
    INDEX 01 01:18:66
  TRACK 50 AUDIO
    TITLE "7:cjc057_10808"
    INDEX 01 01:19:68
  TRACK 51 AUDIO
    TITLE "0:"
    INDEX 01 01:21:06
  TRACK 52 AUDIO
    TITLE "8:cjc057_10809"
    INDEX 01 01:21:35
  TRACK 53 AUDIO
    TITLE "0:"
    INDEX 01 01:23:63
  TRACK 54 AUDIO
    TITLE "9:cjc057_10810"
    INDEX 01 01:24:28
  TRACK 55 AUDIO
    TITLE "0:"
    INDEX 01 01:28:24
  TRACK 56 AUDIO
    TITLE "7:cjc057_10811"
    INDEX 01 01:29:27
  TRACK 57 AUDIO
    TITLE "0:"
    INDEX 01 01:30:56
  TRACK 58 AUDIO
    TITLE "8:cjc057_10812"
    INDEX 01 01:31:10
  TRACK 59 AUDIO
    TITLE "0:"
    INDEX 01 01:32:47
  TRACK 60 AUDIO
    TITLE "9:cjc057_10813"
    INDEX 01 01:33:13
  TRACK 61 AUDIO
    TITLE "0:"
    INDEX 01 01:37:07
  TRACK 62 AUDIO
    TITLE "7:cjc057_10814"
    INDEX 01 01:38:14
  TRACK 63 AUDIO
    TITLE "0:"
    INDEX 01 01:39:25
  TRACK 64 AUDIO
    TITLE "8:cjc057_10815"
    INDEX 01 01:39:53
  TRACK 65 AUDIO
    TITLE "0:"
    INDEX 01 01:42:12
  TRACK 66 AUDIO
    TITLE "9:cjc057_10816"
    INDEX 01 01:42:51
  TRACK 67 AUDIO
    TITLE "0:"
    INDEX 01 01:47:17
  TRACK 68 AUDIO
    TITLE "7:cjc057_10817"
    INDEX 01 01:48:18
  TRACK 69 AUDIO
    TITLE "0:"
    INDEX 01 01:49:53
  TRACK 70 AUDIO
    TITLE "8:cjc057_10818"
    INDEX 01 01:50:07
  TRACK 71 AUDIO
    TITLE "0:"
    INDEX 01 01:52:38
  TRACK 72 AUDIO
    TITLE "9:cjc057_10819"
    INDEX 01 01:53:06
  TRACK 73 AUDIO
    TITLE "0:"
    INDEX 01 01:57:55
  TRACK 74 AUDIO
    TITLE "7:cjc057_10820"
    INDEX 01 01:58:58
  TRACK 75 AUDIO
    TITLE "0:"
    INDEX 01 02:00:14
  TRACK 76 AUDIO
    TITLE "8:cjc057_10821"
    INDEX 01 02:00:45
  TRACK 77 AUDIO
    TITLE "0:"
    INDEX 01 02:01:58
  TRACK 78 AUDIO
    TITLE "9:cjc057_10822"
    INDEX 01 02:02:26
  TRACK 79 AUDIO
    TITLE "0:"
    INDEX 01 02:06:71
  TRACK 80 AUDIO
    TITLE "7:cjc057_10823"
    INDEX 01 02:08:01
  TRACK 81 AUDIO
    TITLE "0:"
    INDEX 01 02:09:34
  TRACK 82 AUDIO
    TITLE "8:cjc057_10824"
    INDEX 01 02:09:64
  TRACK 83 AUDIO
    TITLE "0:"
    INDEX 01 02:12:54
  TRACK 84 AUDIO
    TITLE "9:cjc057_10825"
    INDEX 01 02:13:18
  TRACK 85 AUDIO
    TITLE "0:"
    INDEX 01 02:18:45
  TRACK 86 AUDIO
    TITLE "7:cjc057_10826"
    INDEX 01 02:19:50
  TRACK 87 AUDIO
    TITLE "0:"
    INDEX 01 02:21:14
  TRACK 88 AUDIO
    TITLE "8:cjc057_10827"
    INDEX 01 02:21:43
  TRACK 89 AUDIO
    TITLE "0:"
    INDEX 01 02:23:42
  TRACK 90 AUDIO
    TITLE "9:cjc057_10828"
    INDEX 01 02:24:08
  TRACK 91 AUDIO
    TITLE "0:"
    INDEX 01 02:28:10
  TRACK 92 AUDIO
    TITLE "7:cjc057_10829"
    INDEX 01 02:29:11
  TRACK 93 AUDIO
    TITLE "0:"
    INDEX 01 02:30:52
  TRACK 94 AUDIO
    TITLE "8:cjc057_10830"
    INDEX 01 02:31:04
  TRACK 95 AUDIO
    TITLE "0:"
    INDEX 01 02:33:05
  TRACK 96 AUDIO
    TITLE "9:cjc057_10831"
    INDEX 01 02:33:45
  TRACK 97 AUDIO
    TITLE "0:"
    INDEX 01 02:37:70
  TRACK 98 AUDIO
    TITLE "7:cjc057_10832"
    INDEX 01 02:39:00
  TRACK 99 AUDIO
    TITLE "0:"
    INDEX 01 02:40:33
  TRACK 100 AUDIO
    TITLE "8:cjc057_10833"
    INDEX 01 02:40:64
  TRACK 101 AUDIO
    TITLE "0:"
    INDEX 01 02:42:32
  TRACK 102 AUDIO
    TITLE "9:cjc057_10834"
    INDEX 01 02:43:00
  TRACK 103 AUDIO
    TITLE "0:"
    INDEX 01 02:47:60
  TRACK 104 AUDIO
    TITLE "7:cjc057_10835"
    INDEX 01 02:48:64
  TRACK 105 AUDIO
    TITLE "0:"
    INDEX 01 02:50:27
  TRACK 106 AUDIO
    TITLE "8:cjc057_10836"
    INDEX 01 02:50:55
  TRACK 107 AUDIO
    TITLE "0:"
    INDEX 01 02:51:70
  TRACK 108 AUDIO
    TITLE "9:cjc057_10837"
    INDEX 01 02:52:32
  TRACK 109 AUDIO
    TITLE "0:"
    INDEX 01 02:57:31
  TRACK 110 AUDIO
    TITLE "7:cjc057_10838"
    INDEX 01 02:58:37
  TRACK 111 AUDIO
    TITLE "0:"
    INDEX 01 02:59:58
  TRACK 112 AUDIO
    TITLE "8:cjc057_10839"
    INDEX 01 03:00:10
  TRACK 113 AUDIO
    TITLE "0:"
    INDEX 01 03:02:13
  TRACK 114 AUDIO
    TITLE "9:cjc057_10840"
    INDEX 01 03:02:50
  TRACK 115 AUDIO
    TITLE "0:"
    INDEX 01 03:06:36
  TRACK 116 AUDIO
    TITLE "7:cjc057_10841"
    INDEX 01 03:07:36
  TRACK 117 AUDIO
    TITLE "0:"
    INDEX 01 03:08:60
  TRACK 118 AUDIO
    TITLE "8:cjc057_10842"
    INDEX 01 03:09:13
  TRACK 119 AUDIO
    TITLE "0:"
    INDEX 01 03:10:50
  TRACK 120 AUDIO
    TITLE "9:cjc057_10843"
    INDEX 01 03:11:14
  TRACK 121 AUDIO
    TITLE "0:"
    INDEX 01 03:16:13
  TRACK 122 AUDIO
    TITLE "7:cjc057_10844"
    INDEX 01 03:17:18
  TRACK 123 AUDIO
    TITLE "0:"
    INDEX 01 03:18:41
  TRACK 124 AUDIO
    TITLE "8:cjc057_10845"
    INDEX 01 03:18:71
  TRACK 125 AUDIO
    TITLE "0:"
    INDEX 01 03:22:39
  TRACK 126 AUDIO
    TITLE "9:cjc057_10846"
    INDEX 01 03:23:03
  TRACK 127 AUDIO
    TITLE "0:"
    INDEX 01 03:26:60
